<svg width="399" height="124" viewBox="0 0 399 124" fill="none" xmlns="http://www.w3.org/2000/svg">
<g clip-path="url(#clip0_6747_78143)">
<path d="M60.1822 55.4654L70.2656 64.1262C68.3502 66.8126 66.0329 69.1931 63.392 71.1845C60.0883 73.7569 56.4192 75.8313 52.5048 77.3353C48.1625 79.0415 43.5279 79.9024 38.8619 79.8661C31.2994 79.8661 24.5927 78.1547 18.7473 74.737C12.9592 71.3764 8.20455 66.517 4.99476 60.6723C1.66493 54.7134 1.75228e-05 47.9767 1.75228e-05 40.4568C-0.0365166 35.1255 0.934248 29.8305 2.86534 24.8518C4.7077 20.1065 7.45299 15.7553 10.9498 12.0421C14.4519 8.3392 18.6846 5.39349 23.3871 3.38127C28.4184 1.25497 33.8411 0.191814 39.3108 0.254047C46.8786 0.254047 53.1624 1.73209 58.1676 4.68299C62.9223 7.41089 67.0454 11.0982 70.2709 15.5064L60.0778 24.4991C57.8023 21.1748 54.9004 18.3121 51.5393 16.0717C48.293 13.9609 44.222 12.9082 39.3264 12.9082C34.7388 12.7941 30.2294 14.1113 26.4351 16.6681C22.7921 19.1834 19.9007 22.6218 18.0635 26.6306C16.1011 30.8573 15.1043 35.4678 15.146 40.1249C15.0834 44.6939 16.0803 49.2162 18.0635 53.3339C19.9007 57.1561 22.7295 60.4182 26.2629 62.7882C29.9319 65.1894 34.2482 66.4185 38.6427 66.32C43.079 66.32 46.6489 65.6769 49.3629 64.3855C51.795 63.2861 54.0079 61.7614 55.8921 59.884C57.5257 58.1466 58.9557 56.6686 60.177 55.4551L60.1822 55.4654Z" fill="#1C2951"/>
<path d="M74.1643 51.2543C74.1174 46.2704 75.3804 41.3592 77.8334 37.0132C80.2342 32.7243 83.7311 29.1459 87.9743 26.6306C92.2957 24.0479 97.3218 22.7566 103.052 22.7566C108.783 22.7566 113.809 24.0479 118.125 26.6306C122.369 29.1407 125.865 32.7243 128.266 37.0132C133.162 45.8867 133.162 56.6271 128.266 65.4954C125.855 69.7843 122.358 73.3783 118.125 75.9143C113.804 78.5333 108.783 79.8453 103.052 79.8453C97.3218 79.8453 92.2957 78.5333 87.9743 75.9143C83.7415 73.3783 80.2447 69.7843 77.8334 65.4954C75.3804 61.1494 74.1174 56.2381 74.1643 51.2543ZM103.052 68.2233C106.481 68.2233 109.331 67.352 111.591 65.6043C113.82 63.8928 115.558 61.6369 116.638 59.0542C117.713 56.5908 118.277 53.9407 118.303 51.2543C118.282 48.5886 117.718 45.9489 116.638 43.5062C115.547 40.9495 113.809 38.7091 111.591 37.0132C109.336 35.2759 106.492 34.4046 103.052 34.3994C99.6182 34.3994 96.7686 35.2655 94.5087 37.0132C92.2957 38.7143 90.5577 40.9495 89.4617 43.5062C88.3814 45.9489 87.8177 48.5834 87.7968 51.2543C87.8177 53.9407 88.3814 56.5908 89.4617 59.0542C90.5421 61.6369 92.2801 63.8928 94.5087 65.6043C96.7633 67.352 99.613 68.2233 103.052 68.2233Z" fill="#1C2951"/>
<path d="M134.686 16.1753V2.04834H148.209V16.1753H134.686ZM134.686 78.0197V24.5976H148.209V78.0145H134.686V78.0197Z" fill="#1C2951"/>
<path d="M153.49 78.0199V24.5977H166.45L166.789 30.6344C168.553 28.8037 170.562 27.2115 172.749 25.9046C175.348 24.271 178.746 23.4568 182.942 23.4568C189.586 23.4568 194.68 25.4483 198.229 29.4364C201.778 33.4245 203.553 38.7973 203.553 45.5548V78.0147H190.04V45.6689C190.04 42.3291 189.106 39.7049 187.232 37.8068C185.312 35.8931 182.676 34.8611 179.957 34.9648C176.408 34.887 173.005 36.3858 170.687 39.0618C168.234 41.8208 166.924 45.4044 167.024 49.0866V78.0147H153.485L153.49 78.0199Z" fill="#1C2951"/>
<path d="M370.232 37.2414L393.953 2.04846H371.354L359.084 21.7557L346.344 2.04846H321.396L322.518 3.64578L321.688 3.3035C315.817 1.06828 309.58 -0.046733 303.296 -5.8005e-05C295.42 -5.8005e-05 288.505 1.74248 282.55 5.23273C278.04 7.85172 274.137 11.3835 271.083 15.5946C267.79 11.4613 263.516 8.19919 258.646 6.09881C252.503 3.40203 245.494 2.05364 237.623 2.05364H208.276V78.0147H237.503C245.301 78.0147 252.31 76.63 258.526 73.8554C263.359 71.7498 267.618 68.5293 270.953 64.4633C274.037 68.7108 278.009 72.2425 282.597 74.8252C288.594 78.2428 295.488 79.9543 303.286 79.9543C310.102 80.058 316.85 78.58 322.988 75.6394L321.391 78.0198H343.63L358.416 54.6668L373.666 78.0198H399L370.232 37.2414ZM252.174 54.6097C248.505 58.3697 243.385 60.2522 236.814 60.2522H228.531V19.702H236.814C243.991 19.702 249.262 21.5638 252.634 25.2874C256 29.0111 257.681 33.9068 257.67 39.9797C257.67 45.98 255.838 50.8602 252.174 54.6149V54.6097ZM333.353 60.1796L323.687 51.1454C321.433 54.0393 318.682 56.5027 315.551 58.4319C312.8 60.0292 309.168 60.8227 304.658 60.8227C300.921 60.9057 297.231 59.9566 294.001 58.0896C290.963 56.29 288.515 53.6503 286.955 50.492C285.274 47.1106 284.429 43.3818 284.491 39.6115C284.434 35.9242 285.259 32.2731 286.897 28.9644C288.453 25.8631 290.854 23.2545 293.828 21.4445C296.85 19.5879 300.499 18.6596 304.778 18.6544C308.353 18.5922 311.876 19.4997 314.971 21.2734C317.972 23.0522 320.571 25.4223 322.617 28.2383L332.664 18.1721L347.377 39.1707L333.348 60.1796H333.353Z" fill="#EF3D23"/>
<path d="M44.5196 97.8982V116.905H42.0144V97.8982H44.5196Z" fill="#3D3D3D"/>
<path d="M61.1427 103.339C62.2804 104.438 62.8493 106.025 62.8493 108.099V116.911H60.3755V108.457C60.3755 106.969 59.9997 105.823 59.2481 105.034C58.4965 104.246 57.4684 103.847 56.1636 103.847C54.8588 103.847 53.7941 104.257 53.0112 105.076C52.2283 105.895 51.8421 107.083 51.8421 108.649V116.911H49.3369V101.964H51.8421V104.091C52.3379 103.328 53.0112 102.737 53.8672 102.317C54.7231 101.897 55.6573 101.689 56.6907 101.689C58.5226 101.689 60.0101 102.239 61.1479 103.339H61.1427Z" fill="#3D3D3D"/>
<path d="M67.4997 105.356C68.126 104.205 68.9819 103.308 70.0727 102.67C71.1635 102.032 72.39 101.715 73.747 101.715C74.9213 101.715 76.0121 101.985 77.0246 102.519C78.0319 103.059 78.8044 103.759 79.3367 104.635V96.7263H81.868V116.911H79.3367V114.1C78.8409 114.992 78.105 115.723 77.1342 116.294C76.1635 116.864 75.0257 117.154 73.7209 117.154C72.4161 117.154 71.1635 116.828 70.0727 116.174C68.9819 115.521 68.126 114.603 67.4997 113.42C66.8786 112.238 66.5654 110.895 66.5654 109.386C66.5654 107.876 66.8786 106.518 67.4997 105.361V105.356ZM78.6478 106.461C78.1885 105.626 77.5674 104.983 76.7898 104.537C76.0121 104.091 75.151 103.868 74.2167 103.868C73.2825 103.868 72.4266 104.085 71.6593 104.521C70.8921 104.957 70.271 105.595 69.817 106.43C69.3577 107.265 69.128 108.25 69.128 109.375C69.128 110.501 69.3577 111.517 69.817 112.362C70.2763 113.208 70.8921 113.856 71.6593 114.297C72.4266 114.738 73.2825 114.966 74.2167 114.966C75.151 114.966 76.0069 114.743 76.7898 114.297C77.5727 113.851 78.1885 113.208 78.6478 112.362C79.1071 111.517 79.3367 110.532 79.3367 109.401C79.3367 108.271 79.1071 107.29 78.6478 106.455V106.461Z" fill="#3D3D3D"/>
<path d="M86.7375 99.0444C86.4087 98.7177 86.2417 98.3184 86.2417 97.8464C86.2417 97.3745 86.4087 96.9752 86.7375 96.6484C87.0663 96.3217 87.4734 96.1558 87.9484 96.1558C88.4233 96.1558 88.7991 96.3217 89.1175 96.6484C89.441 96.9752 89.5976 97.3745 89.5976 97.8464C89.5976 98.3184 89.4358 98.7177 89.1175 99.0444C88.7991 99.3711 88.4076 99.5371 87.9484 99.5371C87.4891 99.5371 87.0663 99.3711 86.7375 99.0444ZM89.1592 101.964V116.911H86.654V101.964H89.1592Z" fill="#3D3D3D"/>
<path d="M93.9712 105.356C94.5975 104.205 95.4534 103.307 96.5442 102.67C97.635 102.032 98.8511 101.715 100.192 101.715C101.534 101.715 102.661 102.001 103.632 102.561C104.603 103.126 105.328 103.836 105.808 104.687V101.959H108.34V116.905H105.808V114.126C105.312 114.997 104.577 115.723 103.595 116.293C102.614 116.864 101.471 117.154 100.172 117.154C98.8719 117.154 97.6194 116.828 96.539 116.174C95.4586 115.521 94.6027 114.603 93.9816 113.42C93.3605 112.238 93.0474 110.895 93.0474 109.386C93.0474 107.876 93.3605 106.518 93.9816 105.361L93.9712 105.356ZM105.119 106.461C104.66 105.626 104.039 104.983 103.261 104.537C102.484 104.091 101.622 103.868 100.688 103.868C99.754 103.868 98.8981 104.085 98.1308 104.521C97.3584 104.957 96.7425 105.595 96.2885 106.43C95.8292 107.264 95.5995 108.25 95.5995 109.375C95.5995 110.501 95.8292 111.517 96.2885 112.362C96.7478 113.208 97.3636 113.856 98.1308 114.297C98.8981 114.738 99.754 114.966 100.688 114.966C101.622 114.966 102.478 114.743 103.261 114.297C104.044 113.851 104.66 113.208 105.119 112.362C105.579 111.517 105.808 110.532 105.808 109.401C105.808 108.271 105.579 107.29 105.119 106.455V106.461Z" fill="#3D3D3D"/>
<path d="M129.446 116.905L123.527 110.303V116.905H121.022V96.7209H123.527V108.582L129.336 101.954H132.833L125.735 109.401L132.865 116.9H129.451L129.446 116.905Z" fill="#3D3D3D"/>
<path d="M135.745 105.356C136.372 104.205 137.228 103.307 138.318 102.67C139.409 102.032 140.625 101.715 141.967 101.715C143.308 101.715 144.435 102.001 145.406 102.561C146.377 103.126 147.102 103.836 147.582 104.687V101.959H150.114V116.905H147.582V114.126C147.087 114.997 146.351 115.723 145.369 116.293C144.388 116.864 143.245 117.154 141.946 117.154C140.646 117.154 139.394 116.828 138.313 116.174C137.233 115.521 136.377 114.603 135.756 113.42C135.135 112.238 134.822 110.895 134.822 109.386C134.822 107.876 135.135 106.518 135.756 105.361L135.745 105.356ZM146.893 106.461C146.434 105.626 145.813 104.983 145.035 104.537C144.258 104.091 143.397 103.868 142.462 103.868C141.528 103.868 140.672 104.085 139.905 104.521C139.138 104.957 138.517 105.595 138.063 106.43C137.603 107.264 137.374 108.25 137.374 109.375C137.374 110.501 137.603 111.517 138.063 112.362C138.522 113.208 139.138 113.856 139.905 114.297C140.672 114.738 141.528 114.966 142.462 114.966C143.397 114.966 144.253 114.743 145.035 114.297C145.818 113.851 146.434 113.208 146.893 112.362C147.353 111.517 147.582 110.532 147.582 109.401C147.582 108.271 147.353 107.29 146.893 106.455V106.461Z" fill="#3D3D3D"/>
<path d="M163.13 102.384C163.976 100.901 165.124 99.7446 166.586 98.9045C168.042 98.0695 169.665 97.6494 171.445 97.6494C173.537 97.6494 175.359 98.1525 176.92 99.1482C178.48 100.149 179.618 101.565 180.333 103.401H177.332C176.799 102.255 176.032 101.373 175.035 100.756C174.039 100.139 172.838 99.8276 171.445 99.8276C170.051 99.8276 168.903 100.139 167.838 100.756C166.773 101.373 165.938 102.25 165.333 103.39C164.728 104.526 164.425 105.859 164.425 107.384C164.425 108.908 164.728 110.215 165.333 111.351C165.938 112.487 166.773 113.363 167.838 113.986C168.903 114.608 170.103 114.914 171.445 114.914C172.786 114.914 174.033 114.608 175.035 114.001C176.037 113.394 176.799 112.513 177.332 111.367H180.333C179.618 113.187 178.48 114.592 176.92 115.578C175.359 116.568 173.532 117.066 171.445 117.066C169.665 117.066 168.047 116.651 166.586 115.827C165.124 115.002 163.976 113.851 163.13 112.378C162.285 110.905 161.867 109.24 161.867 107.389C161.867 105.538 162.29 103.868 163.13 102.384Z" fill="#3D3D3D"/>
<path d="M188.981 102.4C189.795 101.928 190.792 101.689 191.966 101.689V104.251H191.309C188.501 104.251 187.097 105.761 187.097 108.779V116.906H184.592V101.959H187.097V104.386C187.54 103.531 188.167 102.867 188.981 102.395V102.4Z" fill="#3D3D3D"/>
<path d="M208.402 101.964L199.32 123.948H196.731L199.701 116.75L193.621 101.969H196.403L201.136 114.079L205.813 101.969H208.402V101.964Z" fill="#3D3D3D"/>
<path d="M216.173 102.576C217.154 102.006 218.297 101.715 219.597 101.715C220.896 101.715 222.149 102.032 223.24 102.67C224.33 103.307 225.186 104.205 225.813 105.356C226.434 106.512 226.747 107.851 226.747 109.38C226.747 110.91 226.434 112.233 225.813 113.415C225.186 114.598 224.33 115.516 223.24 116.169C222.149 116.822 220.933 117.149 219.597 117.149C218.26 117.149 217.18 116.864 216.199 116.288C215.218 115.713 214.471 115.002 213.955 114.146V123.99H211.449V101.954H213.955V104.708C214.45 103.852 215.192 103.142 216.173 102.566V102.576ZM223.506 106.435C223.046 105.6 222.431 104.962 221.648 104.526C220.865 104.091 220.009 103.873 219.075 103.873C218.14 103.873 217.311 104.096 216.528 104.542C215.75 104.988 215.124 105.631 214.659 106.476C214.195 107.322 213.955 108.302 213.955 109.406C213.955 110.511 214.19 111.522 214.659 112.368C215.129 113.213 215.75 113.861 216.528 114.302C217.305 114.743 218.156 114.971 219.075 114.971C219.993 114.971 220.865 114.748 221.648 114.302C222.425 113.856 223.046 113.213 223.506 112.368C223.965 111.522 224.195 110.527 224.195 109.38C224.195 108.234 223.965 107.27 223.506 106.435Z" fill="#3D3D3D"/>
<path d="M233.662 104.007V112.813C233.662 113.539 233.819 114.053 234.132 114.354C234.445 114.655 234.988 114.805 235.755 114.805H237.597V116.905H235.343C233.949 116.905 232.9 116.589 232.206 115.951C231.512 115.313 231.162 114.271 231.162 112.813V104.007H229.21V101.964H231.162V98.199H233.667V101.964H237.603V104.007H233.667H233.662Z" fill="#3D3D3D"/>
<path d="M243.913 116.195C242.764 115.557 241.867 114.655 241.214 113.483C240.562 112.311 240.238 110.952 240.238 109.406C240.238 107.861 240.572 106.528 241.24 105.356C241.908 104.184 242.822 103.282 243.98 102.659C245.139 102.032 246.428 101.715 247.858 101.715C249.288 101.715 250.583 102.032 251.741 102.659C252.895 103.287 253.808 104.184 254.481 105.346C255.155 106.507 255.483 107.866 255.483 109.406C255.483 110.947 255.139 112.311 254.45 113.483C253.761 114.655 252.832 115.557 251.658 116.195C250.484 116.833 249.179 117.149 247.749 117.149C246.319 117.149 245.056 116.833 243.907 116.195H243.913ZM250.285 114.344C251.073 113.923 251.71 113.296 252.195 112.461C252.681 111.626 252.926 110.604 252.926 109.406C252.926 108.208 252.686 107.187 252.211 106.352C251.731 105.517 251.11 104.894 250.337 104.485C249.57 104.075 248.73 103.873 247.832 103.873C246.934 103.873 246.073 104.08 245.311 104.485C244.549 104.894 243.939 105.517 243.479 106.352C243.02 107.187 242.79 108.203 242.79 109.406C242.79 110.61 243.015 111.652 243.464 112.487C243.913 113.322 244.513 113.944 245.264 114.354C246.016 114.764 246.841 114.966 247.743 114.966C248.646 114.966 249.487 114.758 250.275 114.338L250.285 114.344Z" fill="#3D3D3D"/>
<path d="M267.566 102.384C268.411 100.901 269.56 99.7446 271.021 98.9045C272.477 98.0695 274.1 97.6494 275.88 97.6494C277.973 97.6494 279.794 98.1525 281.355 99.1482C282.915 100.149 284.053 101.565 284.768 103.401H281.767C281.235 102.255 280.468 101.373 279.471 100.756C278.469 100.139 277.273 99.8276 275.88 99.8276C274.486 99.8276 273.338 100.139 272.273 100.756C271.209 101.373 270.374 102.25 269.768 103.39C269.163 104.526 268.86 105.859 268.86 107.384C268.86 108.908 269.163 110.215 269.768 111.351C270.374 112.487 271.209 113.363 272.273 113.986C273.338 114.608 274.539 114.914 275.88 114.914C277.221 114.914 278.469 114.608 279.471 114.001C280.473 113.394 281.235 112.513 281.767 111.367H284.768C284.053 113.187 282.915 114.592 281.355 115.578C279.794 116.568 277.968 117.066 275.88 117.066C274.1 117.066 272.482 116.651 271.021 115.827C269.56 115.002 268.411 113.851 267.566 112.378C266.72 110.905 266.303 109.24 266.303 107.389C266.303 105.538 266.725 103.868 267.566 102.384Z" fill="#3D3D3D"/>
<path d="M291.772 116.195C290.624 115.557 289.727 114.655 289.074 113.483C288.422 112.311 288.098 110.952 288.098 109.406C288.098 107.861 288.432 106.528 289.1 105.356C289.768 104.184 290.682 103.282 291.84 102.659C292.999 102.032 294.288 101.715 295.718 101.715C297.148 101.715 298.443 102.032 299.601 102.659C300.755 103.287 301.668 104.184 302.341 105.346C303.009 106.507 303.343 107.866 303.343 109.406C303.343 110.947 302.999 112.311 302.31 113.483C301.621 114.655 300.692 115.557 299.518 116.195C298.343 116.833 297.039 117.149 295.609 117.149C294.178 117.149 292.915 116.833 291.767 116.195H291.772ZM298.14 114.344C298.928 113.923 299.565 113.296 300.05 112.461C300.535 111.626 300.781 110.604 300.781 109.406C300.781 108.208 300.541 107.187 300.066 106.352C299.586 105.517 298.964 104.894 298.192 104.485C297.425 104.075 296.584 103.873 295.687 103.873C294.789 103.873 293.928 104.08 293.166 104.485C292.404 104.894 291.793 105.517 291.334 106.352C290.875 107.187 290.645 108.203 290.645 109.406C290.645 110.61 290.87 111.652 291.318 112.487C291.767 113.322 292.367 113.944 293.119 114.354C293.871 114.764 294.695 114.966 295.598 114.966C296.501 114.966 297.341 114.758 298.129 114.338L298.14 114.344Z" fill="#3D3D3D"/>
<path d="M307.195 105.356C307.821 104.205 308.677 103.307 309.768 102.67C310.859 102.032 312.075 101.715 313.416 101.715C314.758 101.715 315.885 102.001 316.856 102.561C317.826 103.126 318.552 103.836 319.032 104.687V101.959H321.563V116.905H319.032V114.126C318.536 114.997 317.8 115.723 316.819 116.293C315.838 116.864 314.695 117.154 313.395 117.154C312.096 117.154 310.843 116.828 309.763 116.174C308.682 115.521 307.827 114.603 307.205 113.42C306.584 112.238 306.271 110.895 306.271 109.386C306.271 107.876 306.584 106.518 307.205 105.361L307.195 105.356ZM318.343 106.461C317.884 105.626 317.263 104.983 316.485 104.537C315.707 104.091 314.846 103.868 313.912 103.868C312.978 103.868 312.122 104.085 311.355 104.521C310.587 104.957 309.966 105.595 309.512 106.43C309.053 107.264 308.823 108.25 308.823 109.375C308.823 110.501 309.053 111.517 309.512 112.362C309.972 113.208 310.587 113.856 311.355 114.297C312.122 114.738 312.978 114.966 313.912 114.966C314.846 114.966 315.702 114.743 316.485 114.297C317.268 113.851 317.884 113.208 318.343 112.362C318.802 111.517 319.032 110.532 319.032 109.401C319.032 108.271 318.802 107.29 318.343 106.455V106.461Z" fill="#3D3D3D"/>
<path d="M326.349 105.356C326.976 104.205 327.842 103.307 328.948 102.67C330.06 102.032 331.328 101.715 332.758 101.715C334.611 101.715 336.14 102.161 337.341 103.053C338.541 103.945 339.335 105.18 339.721 106.761H337.022C336.767 105.854 336.266 105.133 335.525 104.609C334.783 104.085 333.86 103.821 332.758 103.821C331.328 103.821 330.17 104.308 329.293 105.278C328.416 106.248 327.972 107.628 327.972 109.412C327.972 111.196 328.411 112.601 329.293 113.586C330.175 114.567 331.328 115.059 332.758 115.059C333.86 115.059 334.778 114.805 335.509 114.297C336.24 113.789 336.746 113.063 337.022 112.113H339.721C339.319 113.638 338.51 114.862 337.299 115.78C336.088 116.698 334.575 117.16 332.758 117.16C331.328 117.16 330.055 116.843 328.948 116.205C327.837 115.567 326.97 114.67 326.349 113.509C325.728 112.347 325.415 110.983 325.415 109.417C325.415 107.851 325.728 106.523 326.349 105.366V105.356Z" fill="#3D3D3D"/>
<path d="M354.173 102.41C355.091 102.892 355.812 103.613 356.334 104.578C356.855 105.543 357.116 106.715 357.116 108.094V116.905H354.643V108.452C354.643 106.964 354.267 105.817 353.515 105.029C352.764 104.241 351.735 103.841 350.431 103.841C349.126 103.841 348.061 104.251 347.278 105.071C346.495 105.89 346.109 107.078 346.109 108.644V116.905H343.604V96.7209H346.109V104.085C346.605 103.323 347.289 102.732 348.16 102.312C349.032 101.892 350.008 101.684 351.094 101.684C352.231 101.684 353.259 101.928 354.178 102.405L354.173 102.41Z" fill="#3D3D3D"/>
</g>
<defs>
<clipPath id="clip0_6747_78143">
<rect width="399" height="124" fill="white"/>
</clipPath>
</defs>
</svg>
